<?xml version="1.0" encoding="utf-8"?>
<!-- Generator: Adobe Illustrator 20.1.0, SVG Export Plug-In . SVG Version: 6.00 Build 0)  -->
<svg version="1.2" baseProfile="tiny" id="Calque_1"
	 xmlns="http://www.w3.org/2000/svg" xmlns:xlink="http://www.w3.org/1999/xlink" x="0px" y="0px" viewBox="0 0 32 32"
	 overflow="scroll" xml:space="preserve">
<g>
	<g>
		<path fill="#B572B4" d="M27.9,27.4H4c-2.1,0-3.8-0.9-3.8-2.2l0,0c0-1.2,1.7-2.2,3.8-2.2h24c2,0,3.8,0.9,3.8,2.2l0,0
			C31.7,26.4,30,27.4,27.9,27.4z"/>
	</g>
	<g>
		<path fill="#B572B4" d="M27.9,8.9H4c-2.1,0-3.8-1-3.8-2.2l0,0c0-1.2,1.7-2.2,3.8-2.2h24c2,0,3.8,0.9,3.8,2.2l0,0
			C31.7,7.9,30,8.9,27.9,8.9z"/>
	</g>
	<g>
		<path fill="#B572B4" d="M27.9,18.2H4c-2.1,0-3.8-1-3.8-2.2l0,0c0-1.2,1.7-2.2,3.8-2.2h24c2,0,3.8,0.9,3.8,2.2l0,0
			C31.7,17.2,30,18.2,27.9,18.2z"/>
	</g>
</g>
</svg>
