<?xml version="1.0" encoding="utf-8"?>
<!-- Generator: Adobe Illustrator 20.1.0, SVG Export Plug-In . SVG Version: 6.00 Build 0)  -->
<svg version="1.2" baseProfile="tiny" id="Calque_1"
	 xmlns="http://www.w3.org/2000/svg" xmlns:xlink="http://www.w3.org/1999/xlink" x="0px" y="0px" viewBox="0 0 32 32"
	 overflow="scroll" xml:space="preserve">
<path fill="#FFFFFF" d="M15.8,0C7.1,0,4.1,2.2,1.2,7.1c7.1-3.5,14.4-3.1,14.5-3.1c0.2,0,7.5-0.4,14.5,3.1C27.5,2.2,24.5,0,15.8,0z"
	/>
<path fill="#FFFFFF" d="M15.8,7.1c-8.7,0-11.7,1.4-14.5,4.6c7.1-2.3,14.4-2,14.5-2c0.2,0,7.5-0.2,14.5,2C27.5,8.5,24.5,7.1,15.8,7.1
	z"/>
<g>
	<path fill="#FFFFFF" d="M27.4,18.1H4.1c-2.1,0-3.7-1-3.7-2.1l0,0c0-1.1,1.6-2.1,3.7-2.1h23.3c2,0,3.7,0.9,3.7,2.1l0,0
		C31,17.1,29.4,18.1,27.4,18.1z"/>
</g>
<path fill="#FFFFFF" d="M15.8,32c8.7,0,11.7-2.2,14.5-7.1c-7.1,3.5-14.4,3.1-14.5,3.1c-0.2,0-7.5,0.4-14.5-3.1
	C4.1,29.8,7.1,32,15.8,32z"/>
<path fill="#FFFFFF" d="M15.8,24.4c8.7,0,11.7-1.4,14.5-4.6c-7.1,2.3-14.4,2-14.5,2c-0.2,0-7.5,0.2-14.5-2
	C4.1,23,7.1,24.4,15.8,24.4z"/>
</svg>
