<?xml version="1.0" encoding="utf-8"?>
<!-- Generator: Adobe Illustrator 20.1.0, SVG Export Plug-In . SVG Version: 6.00 Build 0)  -->
<svg version="1.2" baseProfile="tiny" xmlns="http://www.w3.org/2000/svg" xmlns:xlink="http://www.w3.org/1999/xlink" x="0px"
	 y="0px" viewBox="0 0 16 16" overflow="scroll" xml:space="preserve">
<g id="background" display="none">
	<rect x="-99.3" y="-39.3" display="inline" fill="#3D3535" width="144.2" height="298.8"/>
	<rect x="-103.4" y="-43.1" display="inline" fill="#282425" width="145.5" height="296.6"/>
	<rect x="-249.9" y="-50.1" fill="#A6A8AA" width="297.7" height="314.6"/>
	<rect x="-261.4" y="-57.3" fill="#4291AD" width="301.2" height="316.8"/>
</g>
<g id="examples">
</g>
<g id="logo">
</g>
<g id="logoDark_1_">
	<g>
		<polygon points="6.8,14.6 1,11.9 1,4.4 1.4,3.7 0.4,3.2 0.4,12.4 7.9,16 7.9,6.8 6.4,6.1 6.8,7.1 		"/>
		<polygon points="9.3,7.1 15,4.3 15.6,4.5 15.6,3.1 8.3,6.8 8.3,16 15.6,12.4 15.6,11.1 15,11.9 9.3,14.6 		"/>
		<polygon fill="#E8E1E1" points="13.8,3.1 14.5,2.7 8,0 1.5,2.7 2.3,3 8,0.2 		"/>
		<path fill="#E8E1E1" d="M8,1.3c0.3,0,0.6-0.1,0.6-0.3S8.3,0.8,8,0.8c-0.3,0-0.5,0.1-0.5,0.3S7.6,1.3,8,1.3z"/>
		<path fill="#E8E1E1" d="M7.9,3.1c0.5,0,0.9-0.2,0.9-0.4c0-0.2-0.4-0.4-0.9-0.4c-0.5,0-0.8,0.2-0.8,0.4C7.1,2.9,7.4,3.1,7.9,3.1z"
			/>
		<path fill="#E8E1E1" d="M9.3,4.8c0-0.3-0.6-0.6-1.4-0.6c-0.7,0-1.2,0.3-1.2,0.6c0,0.3,0.5,0.6,1.2,0.6C8.6,5.4,9.3,5.2,9.3,4.8z"
			/>
		<path fill="#E8E1E1" d="M11.7,11.3c-0.1,0.7-0.4,1.2-0.7,1.1c-0.3-0.1-0.5-0.7-0.5-1.4s0.3-1.1,0.7-1.1
			C11.5,9.9,11.8,10.5,11.7,11.3z"/>
		<path fill="#E8E1E1" d="M14.3,7.4c-0.1,0.7-0.4,1.2-0.7,1.1c-0.3-0.1-0.5-0.7-0.5-1.3c0-0.6,0.3-1.1,0.7-1.1
			C14.1,6.1,14.3,6.7,14.3,7.4z"/>
		<path fill="#E8E1E1" d="M4.4,9.5c0,0.9-0.4,1.4-0.9,1.2c-0.4-0.2-0.8-0.9-0.8-1.6s0.3-1.3,0.8-1.2C4,7.9,4.4,8.6,4.4,9.5z"/>
	</g>
</g>
<g id="infos">
</g>
</svg>
