<?xml version="1.0" encoding="utf-8"?>
<!-- Generator: Adobe Illustrator 20.1.0, SVG Export Plug-In . SVG Version: 6.00 Build 0)  -->
<svg version="1.2" baseProfile="tiny" xmlns="http://www.w3.org/2000/svg" xmlns:xlink="http://www.w3.org/1999/xlink" x="0px"
	 y="0px" viewBox="0 0 45 50" overflow="auto" xml:space="preserve">
<g id="background" display="none">
	<rect x="-81.1" y="-26.4" display="inline" fill="#FFFFFF" width="133.9" height="246.9"/>
	<rect x="-78.2" y="-24.1" display="inline" fill="#A6A8AA" width="297.7" height="257.3"/>
	<rect x="-89.7" y="-31.3" fill="#4291AD" width="301.2" height="255.2"/>
</g>
<g id="examples">
</g>
<g id="logo">
	<g>
		<g>
			<path d="M4.5,31.7v-0.2h0.4v0.2v6.4H8v-6.4v-0.2h1v0.2v6.6v0.2H8.8H4.7H4.5v-0.2V31.7z"/>
			<path fill="#3D3535" d="M10.9,38.2v0.2h-0.4v-0.2v-4.4v-0.2h0.2H14h0.2v0.2v4.4v0.2h-0.4v-0.2V34h-2.9V38.2z"/>
			<path fill="#3D3535" d="M15.7,35.9l2.4-1.7l0.1,0h0.7l-0.5,0.4l-2.5,1.7l2.5,1.7l0.5,0.4h-0.7l-0.1,0l-2.4-1.7v1.5v0.2h-0.4v-0.2
				v-1.8v-0.2v-5.3v-0.2h0.4v0.2V35.9z"/>
			<path fill="#3D3535" d="M20.1,38.2v0.2h-0.4v-0.2v-4.4v-0.2h0.2h3.3h0.2v0.2v4.4v0.2H23v-0.2V34h-2.9V38.2z"/>
			<path fill="#3D3535" d="M24.7,33.8v-0.2h0.2h3.3h0.2v0.2v4.4v0.2h-0.2h-3.3h-0.2v-0.2V33.8z M25.1,34V38H28V34H25.1z"/>
			<path fill="#3D3535" d="M29.6,33.8v-0.2h0.4v0.2V38h1.8v-4.1v-0.2h0.4v0.2V38h2.9v-4.1v-0.2h0.4v0.2v4.4v0.2h-0.2h-3.1h-0.4h-2
				h-0.2v-0.2V33.8z"/>
			<path fill="#3D3535" d="M37.2,38.2v0.2h-0.4v-0.2v-4.4v-0.2H37h3.3h0.2v0.2v4.4v0.2h-0.4v-0.2V34h-2.9V38.2z"/>
		</g>
		<g>
			<path d="M14,39.9h0.2v0.3H14h-2.6v5.1H14h0.2v0.3H14h-3.4h-0.2v-0.2V40v-0.2h0.2H14z"/>
			<path fill="#3D3535" d="M15.4,41.8v-0.2h0.2h2.7h0.2v0.2v3.6v0.2h-0.2h-2.7h-0.2v-0.2V41.8z M15.7,42v3.2h2.4V42H15.7z"/>
			<path fill="#3D3535" d="M19.8,45.4v0.2h-0.3v-0.2v-3.6v-0.2h0.2h1.9h0.3h2.2h0.2v0.2v3.6v0.2h-0.3v-0.2V42h-2v3.4v0.2h-0.3v-0.2
				V42h-1.8V45.4z"/>
			<path fill="#3D3535" d="M25.6,46.7v0.2h-0.3v-0.2v-4.9v-0.2h0.2h2.7h0.2v0.2v3.6v0.2h-0.2H26h-0.2v-0.3H26H28V42h-2.4V46.7z"/>
			<path fill="#3D3535" d="M29.5,42h-0.2v-0.3h0.2h2.7h0.2v0.2v3.6v0.2h-0.2h-2.7h-0.2v-0.2V44v-0.2h0.2h2.2h0.2v0.3h-0.2h-2v1h2.4
				V42H29.5z"/>
			<path fill="#3D3535" d="M33.8,45.4v0.2h-0.3v-0.2v-3.6v-0.2h0.2h2.7h0.2v0.2v3.6v0.2h-0.3v-0.2V42h-2.4V45.4z"/>
			<path fill="#3D3535" d="M37.5,41.8v-0.2h0.3v0.2v3.4h2.4v-3.4v-0.2h0.3v0.2v3.4v0.3v0.8v0.2h-0.2h-2.7h-0.2v-0.3h0.2h2.5v-0.6
				h-2.5h-0.2v-0.2V41.8z"/>
		</g>
		<polygon points="20.2,23.1 12.3,19.4 12.3,9.1 12.8,8.1 11.4,7.4 11.4,20 21.7,25 21.7,12.4 19.6,11.4 20.2,12.9 		"/>
		<polygon points="23.6,12.9 31.5,9 32.3,9.2 32.3,7.4 22.3,12.4 22.3,25 32.3,20.1 32.3,18.3 31.4,19.4 23.6,23.1 		"/>
		<polygon fill="#3D3535" points="29.8,7.3 30.7,6.8 21.9,3.1 13,6.7 14,7.2 21.9,3.4 		"/>
		<path fill="#3D3535" d="M21.8,4.9c0.4,0,0.9-0.2,0.9-0.4c0-0.2-0.4-0.4-0.9-0.4c-0.4,0-0.7,0.2-0.7,0.4
			C21.1,4.8,21.4,4.9,21.8,4.9z"/>
		<path fill="#3D3535" d="M21.8,7.3C22.4,7.3,23,7,23,6.7c0-0.3-0.6-0.6-1.3-0.6c-0.7,0-1.1,0.3-1.1,0.6C20.6,7,21.1,7.3,21.8,7.3z"
			/>
		<path fill="#3D3535" d="M23.6,9.7c0-0.5-0.9-0.8-1.9-0.8c-1,0-1.7,0.4-1.7,0.8c0,0.5,0.7,0.8,1.7,0.8
			C22.7,10.5,23.6,10.2,23.6,9.7z"/>
		<path fill="#3D3535" d="M26.9,18.5c-0.1,1-0.5,1.6-1,1.5c-0.4-0.2-0.7-1-0.7-1.9c0.1-0.9,0.5-1.5,0.9-1.5
			C26.7,16.7,27,17.5,26.9,18.5z"/>
		<path fill="#3D3535" d="M30.5,13.2c-0.1,1-0.5,1.6-1,1.4c-0.4-0.2-0.7-1-0.6-1.8c0.1-0.9,0.5-1.5,0.9-1.5
			C30.2,11.4,30.5,12.3,30.5,13.2z"/>
		<path fill="#3D3535" d="M17,16.1c0,1.2-0.6,1.9-1.2,1.6c-0.6-0.2-1-1.2-1-2.2s0.4-1.7,1-1.7C16.4,13.9,17,14.9,17,16.1z"/>
	</g>
</g>
<g id="logoDark_1_">
</g>
<g id="repères">
</g>
<g id="infos">
</g>
</svg>
