<?xml version="1.0" encoding="utf-8"?>
<!-- Generator: Adobe Illustrator 20.1.0, SVG Export Plug-In . SVG Version: 6.00 Build 0)  -->
<svg version="1.2" baseProfile="tiny" xmlns="http://www.w3.org/2000/svg" xmlns:xlink="http://www.w3.org/1999/xlink" x="0px"
	 y="0px" viewBox="0 0 100 20" overflow="auto" xml:space="preserve">
<g id="background">
</g>
<g id="examples">
</g>
<g id="logo">
	<g>
		<path d="M21.7,6.3V6.1h0.4v0.2v6.5h3.2V6.3V6.1h1v0.2V13v0.2h-0.2h-4.2h-0.2V13V6.3z"/>
		<path fill="#35353D" d="M28.2,12.9v0.2h-0.4v-0.2V8.5V8.3H28h3.4h0.2v0.2v4.4v0.2h-0.4v-0.2V8.7h-2.9V12.9z"/>
		<path fill="#35353D" d="M33,10.6l2.4-1.7l0.1,0h0.7l-0.5,0.4L33.2,11l2.5,1.8l0.5,0.4h-0.7l-0.1,0L33,11.4v1.5v0.2h-0.4v-0.2v-1.8
			v-0.2V5.6V5.3H33v0.2V10.6z"/>
		<path fill="#35353D" d="M37.4,12.9v0.2H37v-0.2V8.5V8.3h0.2h3.4h0.2v0.2v4.4v0.2h-0.4v-0.2V8.7h-2.9V12.9z"/>
		<path fill="#35353D" d="M42,8.5V8.3h0.2h3.4h0.2v0.2v4.4v0.2h-0.2h-3.4H42v-0.2V8.5z M42.5,8.7v4h2.9v-4H42.5z"/>
		<path fill="#35353D" d="M47.1,8.5V8.3h0.4v0.2v4.2h1.8V8.5V8.3h0.4v0.2v4.2h2.9V8.5V8.3H53v0.2v4.4v0.2h-0.2h-3.1h-0.4h-2h-0.2
			v-0.2V8.5z"/>
		<path fill="#35353D" d="M54.7,12.9v0.2h-0.4v-0.2V8.5V8.3h0.2h3.4h0.2v0.2v4.4v0.2h-0.4v-0.2V8.7h-2.9V12.9z"/>
	</g>
	<g>
		<path d="M65.3,6.3h0.2v0.4h-0.2h-3.1v6.1h3.1h0.2v0.4h-0.2h-4.1h-0.2v-0.2V6.5V6.3h0.2H65.3z"/>
		<path fill="#35353D" d="M67,8.6V8.4h0.2h3.3h0.2v0.2v4.3v0.2h-0.2h-3.3H67v-0.2V8.6z M67.4,8.8v3.9h2.9V8.8H67.4z"/>
		<path fill="#35353D" d="M72.3,12.9v0.2h-0.4v-0.2V8.6V8.4h0.2h2.3h0.4h2.6h0.2v0.2v4.3v0.2h-0.4v-0.2V8.8h-2.4v4.1v0.2h-0.4v-0.2
			V8.8h-2.1V12.9z"/>
		<path fill="#35353D" d="M79.3,14.6v0.2h-0.4v-0.2V8.6V8.4h0.2h3.3h0.2v0.2v4.3v0.2h-0.2h-2.7h-0.2v-0.4h0.2h2.5V8.8h-2.9V14.6z"/>
		<path fill="#35353D" d="M83.9,8.8h-0.2V8.4h0.2h3.3h0.2v0.2v4.3v0.2h-0.2h-3.3h-0.2v-0.2v-1.6v-0.2h0.2h2.6h0.2v0.4h-0.2h-2.4v1.2
			H87V8.8H83.9z"/>
		<path fill="#35353D" d="M89,12.9v0.2h-0.4v-0.2V8.6V8.4h0.2h3.3h0.2v0.2v4.3v0.2h-0.4v-0.2V8.8H89V12.9z"/>
		<path fill="#35353D" d="M93.5,8.6V8.4h0.4v0.2v4.1h2.9V8.6V8.4h0.4v0.2v4.1v0.4v1v0.2H97h-3.3h-0.2v-0.4h0.2h3.1v-0.7h-3.1h-0.2
			v-0.2V8.6z"/>
	</g>
	<g>
		<polygon points="8.9,15.9 3.8,13.4 3.8,6.6 4.1,6 3.2,5.6 3.2,13.9 9.9,17.1 9.9,8.8 8.6,8.2 8.9,9.1 		"/>
		<polygon points="11.2,9.1 16.4,6.6 16.9,6.7 16.9,5.5 10.3,8.8 10.3,17.1 16.9,13.9 16.9,12.7 16.3,13.4 11.2,15.9 		"/>
		<polygon fill="#282425" points="15.2,5.5 15.9,5.2 10,2.7 4.2,5.1 4.8,5.4 10,2.9 		"/>
		<path fill="#282425" d="M10,3.9c0.3,0,0.6-0.1,0.6-0.2S10.3,3.4,10,3.4c-0.3,0-0.5,0.1-0.5,0.2S9.7,3.9,10,3.9z"/>
		<path fill="#282425" d="M10,5.4c0.4,0,0.8-0.2,0.8-0.4c0-0.2-0.4-0.4-0.8-0.4c-0.4,0-0.7,0.2-0.7,0.4C9.2,5.3,9.5,5.4,10,5.4z"/>
		<path fill="#282425" d="M11.2,7c0-0.3-0.6-0.5-1.2-0.5C9.3,6.5,8.8,6.7,8.8,7c0,0.3,0.5,0.5,1.1,0.5C10.6,7.6,11.2,7.3,11.2,7z"/>
		<path fill="#282425" d="M13.4,12.8c0,0.6-0.3,1.1-0.7,1c-0.3-0.1-0.5-0.7-0.4-1.2c0-0.6,0.3-1,0.6-1
			C13.2,11.6,13.4,12.2,13.4,12.8z"/>
		<path fill="#282425" d="M15.7,9.4c0,0.6-0.3,1.1-0.6,0.9c-0.3-0.1-0.5-0.6-0.4-1.2c0-0.6,0.3-1,0.6-1C15.5,8.2,15.7,8.7,15.7,9.4z
			"/>
		<path fill="#282425" d="M6.8,11.2c0,0.8-0.4,1.2-0.8,1.1c-0.4-0.2-0.7-0.8-0.7-1.4c0-0.6,0.3-1.1,0.7-1.1
			C6.4,9.8,6.8,10.5,6.8,11.2z"/>
	</g>
</g>
<g id="repères">
</g>
<g id="infos">
</g>
</svg>
