<?xml version="1.0" encoding="utf-8"?>
<!-- Generator: Adobe Illustrator 20.1.0, SVG Export Plug-In . SVG Version: 6.00 Build 0)  -->
<svg version="1.2" baseProfile="tiny" xmlns="http://www.w3.org/2000/svg" xmlns:xlink="http://www.w3.org/1999/xlink" x="0px"
	 y="0px" viewBox="0 0 50 25" overflow="auto" xml:space="preserve">
<g id="background">
</g>
<g id="examples">
</g>
<g id="logo">
	<g>
		<path d="M3.4,4.4V4.2h0.5v0.2v7.5h3.7V4.4V4.2h1.2v0.2v7.7v0.2H8.5H3.7H3.4v-0.2V4.4z"/>
		<path fill="#35353D" d="M10.9,12v0.2h-0.5V12V6.9V6.7h0.2h3.9h0.2v0.2V12v0.2h-0.5V12V7.1h-3.4V12z"/>
		<path fill="#35353D" d="M16.5,9.3l2.8-1.9l0.1,0h0.8l-0.6,0.4l-2.9,2l2.9,2l0.6,0.4h-0.8l-0.1,0l-2.8-1.9V12v0.2H16V12V9.9V9.6
			V3.5V3.3h0.5v0.2V9.3z"/>
		<path fill="#35353D" d="M21.6,12v0.2h-0.5V12V6.9V6.7h0.2h3.9h0.2v0.2V12v0.2H25V12V7.1h-3.4V12z"/>
		<path fill="#35353D" d="M26.9,6.9V6.7h0.2H31h0.2v0.2V12v0.2H31h-3.9h-0.2V12V6.9z M27.4,7.1v4.6h3.4V7.1H27.4z"/>
		<path fill="#35353D" d="M32.7,6.9V6.7h0.5v0.2v4.8h2.1V6.9V6.7h0.5v0.2v4.8h3.4V6.9V6.7h0.5v0.2V12v0.2h-0.2h-3.6h-0.5H33h-0.2V12
			V6.9z"/>
		<path fill="#35353D" d="M41.5,12v0.2h-0.5V12V6.9V6.7h0.2h3.9h0.2v0.2V12v0.2h-0.5V12V7.1h-3.4V12z"/>
	</g>
	<g>
		<path d="M14.6,13.9h0.2v0.4h-0.2h-3v6h3h0.2v0.4h-0.2h-3.9h-0.2v-0.2v-6.3v-0.2h0.2H14.6z"/>
		<path fill="#35353D" d="M16.2,16.2V16h0.2h3.2h0.2v0.2v4.2v0.2h-0.2h-3.2h-0.2v-0.2V16.2z M16.5,16.4v3.8h2.8v-3.8H16.5z"/>
		<path fill="#35353D" d="M21.3,20.4v0.2h-0.4v-0.2v-4.2V16h0.2h2.3h0.4h2.5h0.2v0.2v4.2v0.2h-0.4v-0.2v-4h-2.3v4v0.2h-0.4v-0.2v-4
			h-2.1V20.4z"/>
		<path fill="#35353D" d="M28.1,22v0.2h-0.4V22v-5.8V16h0.2H31h0.2v0.2v4.2v0.2H31h-2.6h-0.2v-0.4h0.2h2.4v-3.8h-2.8V22z"/>
		<path fill="#35353D" d="M32.6,16.4h-0.2V16h0.2h3.2h0.2v0.2v4.2v0.2h-0.2h-3.2h-0.2v-0.2v-1.6v-0.2h0.2h2.6h0.2V19h-0.2h-2.4v1.2
			h2.8v-3.8H32.6z"/>
		<path fill="#35353D" d="M37.5,20.4v0.2h-0.4v-0.2v-4.2V16h0.2h3.2h0.2v0.2v4.2v0.2h-0.4v-0.2v-4h-2.8V20.4z"/>
		<path fill="#35353D" d="M41.9,16.2V16h0.4v0.2v4H45v-4V16h0.4v0.2v4v0.4v0.9v0.2h-0.2h-3.2h-0.2v-0.4h0.2h3v-0.7h-3h-0.2v-0.2
			V16.2z"/>
	</g>
</g>
<g id="repères">
</g>
<g id="infos">
</g>
</svg>
