<?xml version="1.0" encoding="utf-8"?>
<!-- Generator: Adobe Illustrator 20.1.0, SVG Export Plug-In . SVG Version: 6.00 Build 0)  -->
<svg version="1.2" baseProfile="tiny" xmlns="http://www.w3.org/2000/svg" xmlns:xlink="http://www.w3.org/1999/xlink" x="0px"
	 y="0px" viewBox="0 0 45 50" overflow="auto" xml:space="preserve">
<g id="background">
</g>
<g id="examples">
</g>
<g id="logo">
	<g>
		<path d="M4.5,31.6v-0.2h0.4v0.2V38H8v-6.4v-0.2h1v0.2v6.6v0.2H8.8H4.7H4.5v-0.2V31.6z"/>
		<path fill="#35353D" d="M10.9,38.1v0.2h-0.4v-0.2v-4.4v-0.2h0.2H14h0.2v0.2v4.4v0.2h-0.4v-0.2v-4.1h-2.9V38.1z"/>
		<path fill="#35353D" d="M15.7,35.7l2.4-1.7l0.1,0h0.7l-0.5,0.4l-2.5,1.7l2.5,1.7l0.5,0.4h-0.7l-0.1,0l-2.4-1.7v1.5v0.2h-0.4v-0.2
			v-1.8V36v-5.3v-0.2h0.4v0.2V35.7z"/>
		<path fill="#35353D" d="M20.1,38.1v0.2h-0.4v-0.2v-4.4v-0.2h0.2h3.3h0.2v0.2v4.4v0.2H23v-0.2v-4.1h-2.9V38.1z"/>
		<path fill="#35353D" d="M24.7,33.7v-0.2h0.2h3.3h0.2v0.2v4.4v0.2h-0.2h-3.3h-0.2v-0.2V33.7z M25.1,33.9v3.9H28v-3.9H25.1z"/>
		<path fill="#35353D" d="M29.6,33.7v-0.2h0.4v0.2v4.1h1.8v-4.1v-0.2h0.4v0.2v4.1h2.9v-4.1v-0.2h0.4v0.2v4.4v0.2h-0.2h-3.1h-0.4h-2
			h-0.2v-0.2V33.7z"/>
		<path fill="#35353D" d="M37.2,38.1v0.2h-0.4v-0.2v-4.4v-0.2H37h3.3h0.2v0.2v4.4v0.2h-0.4v-0.2v-4.1h-2.9V38.1z"/>
	</g>
	<g>
		<path d="M14,39.8h0.2v0.3H14h-2.6v5.1H14h0.2v0.3H14h-3.4h-0.2v-0.2v-5.5v-0.2h0.2H14z"/>
		<path fill="#35353D" d="M15.4,41.7v-0.2h0.2h2.7h0.2v0.2v3.6v0.2h-0.2h-2.7h-0.2v-0.2V41.7z M15.7,41.9v3.2h2.4v-3.2H15.7z"/>
		<path fill="#35353D" d="M19.8,45.3v0.2h-0.3v-0.2v-3.6v-0.2h0.2h1.9h0.3h2.2h0.2v0.2v3.6v0.2h-0.3v-0.2v-3.4h-2v3.4v0.2h-0.3v-0.2
			v-3.4h-1.8V45.3z"/>
		<path fill="#35353D" d="M25.6,46.6v0.2h-0.3v-0.2v-4.9v-0.2h0.2h2.7h0.2v0.2v3.6v0.2h-0.2H26h-0.2v-0.3H26H28v-3.2h-2.4V46.6z"/>
		<path fill="#35353D" d="M29.5,41.9h-0.2v-0.3h0.2h2.7h0.2v0.2v3.6v0.2h-0.2h-2.7h-0.2v-0.2v-1.3v-0.2h0.2h2.2h0.2v0.3h-0.2h-2v1
			h2.4v-3.2H29.5z"/>
		<path fill="#35353D" d="M33.8,45.3v0.2h-0.3v-0.2v-3.6v-0.2h0.2h2.7h0.2v0.2v3.6v0.2h-0.3v-0.2v-3.4h-2.4V45.3z"/>
		<path fill="#35353D" d="M37.5,41.7v-0.2h0.3v0.2v3.4h2.4v-3.4v-0.2h0.3v0.2v3.4v0.3v0.8v0.2h-0.2h-2.7h-0.2v-0.3h0.2h2.5v-0.6
			h-2.5h-0.2v-0.2V41.7z"/>
	</g>
	<g>
		<polygon points="20.2,23 12.3,19.3 12.3,9 12.8,8 11.4,7.3 11.4,19.9 21.7,24.9 21.7,12.3 19.6,11.3 20.2,12.7 		"/>
		<polygon points="23.6,12.7 31.5,8.9 32.3,9.1 32.3,7.3 22.3,12.3 22.3,24.9 32.3,20 32.3,18.2 31.4,19.3 23.6,23 		"/>
		<polygon fill="#282425" points="29.8,7.2 30.7,6.7 21.9,3 13,6.6 14,7.1 21.9,3.3 		"/>
		<path fill="#282425" d="M21.8,4.8c0.4,0,0.9-0.2,0.9-0.4c0-0.2-0.4-0.4-0.9-0.4c-0.4,0-0.7,0.2-0.7,0.4
			C21.1,4.7,21.4,4.8,21.8,4.8z"/>
		<path fill="#282425" d="M21.8,7.2c0.7,0,1.3-0.3,1.3-0.6C23,6.3,22.4,6,21.8,6c-0.7,0-1.1,0.3-1.1,0.6C20.6,6.9,21.1,7.2,21.8,7.2
			z"/>
		<path fill="#282425" d="M23.6,9.6c0-0.5-0.9-0.8-1.9-0.8c-1,0-1.7,0.4-1.7,0.8c0,0.5,0.7,0.8,1.7,0.8
			C22.7,10.4,23.6,10.1,23.6,9.6z"/>
		<path fill="#282425" d="M26.9,18.4c-0.1,1-0.5,1.6-1,1.5c-0.4-0.2-0.7-1-0.7-1.9c0.1-0.9,0.5-1.5,0.9-1.5
			C26.7,16.6,27,17.4,26.9,18.4z"/>
		<path fill="#282425" d="M30.5,13.1c-0.1,1-0.5,1.6-1,1.4c-0.4-0.2-0.7-1-0.6-1.8c0.1-0.9,0.5-1.5,0.9-1.5
			C30.2,11.3,30.5,12.2,30.5,13.1z"/>
		<path fill="#282425" d="M17,16c0,1.2-0.6,1.9-1.2,1.6c-0.6-0.2-1-1.2-1-2.2s0.4-1.7,1-1.7C16.4,13.8,17,14.8,17,16z"/>
	</g>
</g>
<g id="repères">
</g>
<g id="infos">
</g>
</svg>
