<?xml version="1.0" encoding="utf-8"?>
<!-- Generator: Adobe Illustrator 18.1.1, SVG Export Plug-In . SVG Version: 6.00 Build 0)  -->
<svg version="1.1" id="Calque_1" xmlns="http://www.w3.org/2000/svg" xmlns:xlink="http://www.w3.org/1999/xlink" x="0px" y="0px"
	 viewBox="0 0 40 40" enable-background="new 0 0 40 40" xml:space="preserve">
<path d="M20,0C9,0,0,9,0,20s9,20,20,20s20-9,20-20S31,0,20,0z M20,36.3C11,36.3,3.8,29,3.8,20S11,3.8,20,3.8S36.3,11,36.3,20
	S29,36.3,20,36.3z"/>
<path d="M26.3,10L20,16.3L13.8,10L10,13.8l6.3,6.3L10,26.3l3.8,3.8l6.3-6.3l6.3,6.3l3.8-3.8L23.8,20l6.3-6.3L26.3,10z"/>
</svg>
