<?xml version="1.0" encoding="utf-8"?>
<!-- Generator: Adobe Illustrator 18.1.1, SVG Export Plug-In . SVG Version: 6.00 Build 0)  -->
<svg version="1.1" id="Calque_1" xmlns="http://www.w3.org/2000/svg" xmlns:xlink="http://www.w3.org/1999/xlink" x="0px" y="0px"
	 viewBox="0 0 40 40" enable-background="new 0 0 40 40" xml:space="preserve">
<g>
	<path d="M27.8,40c-1.2-0.2-2.5-0.4-3.8-0.7c-3.8-0.8-6.9-2.8-9.8-5.1c-3.8-3-7-6.4-9.7-10.3c-0.9-1.3-1.8-2.7-2.5-4.1
		c-0.7-1.4-1.1-3-1.6-4.5c-0.4-1.3-0.5-2.6-0.4-4c0.3-3.8,2-7,5.3-9.4c0.5-0.4,1-0.8,1.5-1.1c1.6-1.2,3-1,4.3,0.3
		c1,1,1.8,2.1,2.6,3.2c0.7,1,1.4,2.1,1.9,3.3c0.7,1.7,0.5,3.3-1.2,4.7c-0.8,0.7-1.7,1.3-2.6,1.9c-1.5,1.1-1.7,2.4-1.1,4.1
		c0.8,1.9,2.1,3.6,3.5,5.1c1.6,1.8,3.3,3.5,5.4,4.9c0.9,0.6,1.8,1,2.8,1.2c1.2,0.2,2.1-0.2,2.9-0.9c1-0.8,1.9-1.7,2.9-2.5
		c1.4-0.9,2.9-0.9,4.4-0.1c2.6,1.3,4.8,3,6.5,5.2c1.2,1.5,1,2.9-0.6,4.1c-1.1,0.9-2.1,1.8-3.3,2.5c-1.3,0.9-2.7,1.5-4.3,1.7
		C30,39.7,29,39.8,27.8,40z"/>
</g>
</svg>
