<?xml version="1.0" encoding="utf-8"?>
<!-- Generator: Adobe Illustrator 18.1.1, SVG Export Plug-In . SVG Version: 6.00 Build 0)  -->
<svg version="1.1" id="Calque_1" xmlns="http://www.w3.org/2000/svg" xmlns:xlink="http://www.w3.org/1999/xlink" x="0px" y="0px"
	 viewBox="0 0 160 60" enable-background="new 0 0 160 60" xml:space="preserve">
<circle fill="#F5D563" cx="28.6" cy="31.7" r="9.1"/>
<path fill="#FFFFFF" d="M28.6,3.1c-2.6,0-22.3,20.1-22,29.1c0.2,6.8,12.6,18.8,18.7,24.3h0.2l0-11.7c-5.8-1.4-10.1-6.6-10.1-12.9
	c0-7.3,5.9-13.3,13.3-13.3c7.3,0,13.3,5.9,13.3,13.3c0,6.2-4.3,11.5-10.1,12.9l0,11.7l0,0h0.2c6.1-5.5,18.5-17.5,18.7-24.3
	C50.8,23.1,31.1,3.1,28.6,3.1z"/>
<g>
	<path fill="#FFFFFF" d="M82.1,35.4H61.3V5.5l3-0.2v27.6h18.1L82.1,35.4z"/>
	<path fill="#FFFFFF" d="M103.9,33.6c-2.7,1-5.3,2.1-9.5,2.1c-4.2,0-9.6-2.5-9.6-7.7V13.7l3-0.2v13.8c0,3.8,3.5,5.8,6.7,5.8
		c2.1,0,4.4-0.5,6.4-1.3V13.7l3-0.2V33.6z"/>
	<path fill="#FFFFFF" d="M127.6,32.7c-1.8,1.8-4.4,3.1-8.2,3.1c-7.8,0-11.9-5.4-11.9-11.4c0-5.8,4.1-11.2,11.9-11.2
		c3.5,0,6.3,1.1,8.3,3l-2.1,1.8c-1.5-1.4-3.5-2.3-6.1-2.3c-5.7,0-9.1,4-9.1,8.8c0,4.7,3.4,8.8,9,8.8c2.8,0,4.7-1,6.2-2.3L127.6,32.7
		z"/>
	<path fill="#FFFFFF" d="M153.1,13.5c-1,7.3-4.9,15.3-8.8,21.9c-2.3,4-4.2,8.8-9.1,8.8c-2.9,0-5-1.1-6-2l1.6-2
		c1.5,1.1,2.4,1.6,4.4,1.6c3.1,0,4.3-3.7,6-6.4c-3.8-6.7-9.2-14.6-10.2-21.9h3c0.8,6.4,5,13.2,8.7,19.3c3.3-6,6.5-12.9,7.3-19.3
		H153.1z"/>
</g>
<g>
	<path fill="#F5D563" d="M63.5,54.4c-0.5,0-0.9-0.1-1.2-0.4c-0.3-0.3-0.2-0.6,0.1-0.9s1-0.4,1.9-0.4c1.3,0,1.8,0.3,1.4,1
		C65.5,54.2,64.8,54.4,63.5,54.4z"/>
	<path fill="#F5D563" d="M86.5,50.7c0.3-0.1,0.7,0,1,0.1c0.4,0.2,0.4,0.4,0.1,0.8c-0.9,0.9-2.1,1.6-3.6,2.2
		c-0.9,0.3-1.6,0.5-2.3,0.5c-2.3,0-3.2-1.1-2.9-3.2c0.3-1.6,0.5-2.6,0.6-2.9c0.3-0.8,0.3-1.2-0.1-1.2c-0.3,0-0.7,0.2-1.2,0.5
		c-0.5,0.3-1,0.9-1.6,1.6c-0.6,0.7-1.1,1.3-1.5,1.8c-0.4,0.4-0.9,1.1-1.5,2c-0.6,0.8-1.1,1.2-1.4,1.3c-0.2,0-0.3,0.1-0.6,0.1
		c-1.9,0-2.5-1.9-1.9-5.7c0.7-3.9,1.3-6.6,2-8.1c0.3-0.6,0.9-1,1.9-1.3c0.6-0.2,1.1-0.1,1.2,0.1c-1.1,2.8-1.9,6.4-2.5,10.7
		c-0.2,1.1-0.2,1.9-0.2,2.2c2.6-4.1,5-6.1,7.4-6.3c1.1-0.1,1.9,0.1,2.4,0.4c0.5,0.3,0.7,0.9,0.6,1.7c-0.5,2.2-0.7,3.5-0.7,4.1
		c0,0.7,0.2,1,0.6,1c0.2,0,0.6-0.1,1.1-0.4C84.7,52.2,85.7,51.5,86.5,50.7z"/>
	<path fill="#F5D563" d="M93.2,45.7c1.9,0,3,0.4,3.3,1.1c0.3,0.8-0.3,1.6-1.8,2.5c-1.5,0.8-3.4,1.3-5.7,1.5c-0.2,1.8,1,2.6,3.5,2.6
		c1.3,0,2.5-0.2,3.5-0.7c1.1-0.5,2.1-1.1,3.1-2c0.2-0.1,0.5,0,0.7,0c0.3,0.1,0.4,0.2,0.5,0.3c0.1,0.1,0,0.3-0.1,0.6
		c-0.9,0.9-2.1,1.6-3.7,2.1s-3.1,0.7-4.8,0.7c-2,0-3.6-0.4-4.6-1.1c-1-0.8-1.4-1.7-1.2-2.8c0.2-1.2,1-2.3,2.4-3.3
		C89.8,46.2,91.4,45.7,93.2,45.7z M93.1,46.4c-0.8,0-1.6,0.4-2.4,1.2c-0.8,0.8-1.3,1.6-1.5,2.6c2.2-0.4,3.7-1.1,4.6-2.1
		c0.7-0.8,0.7-1.3,0-1.5C93.6,46.5,93.4,46.4,93.1,46.4z"/>
	<path fill="#F5D563" d="M105.8,39.6c1.7,0,2.6,0.8,2.9,2.4c0.2,1.7-0.4,3.5-1.8,5.2c-1.5,1.7-3.3,2.6-5.3,2.6
		c-0.1,2.5,0.9,3.7,2.8,3.7c1.9,0,3.9-0.9,6.1-2.8c0.4-0.1,0.7-0.1,1,0.2c0.3,0.2,0.4,0.4,0.1,0.7c-1,1-2.2,1.7-3.7,2.1
		c-1.5,0.5-3,0.7-4.5,0.7c-3.6,0-5-2-4.4-6c0.3-2.2,1.2-4.2,2.6-6C102.9,40.6,104.4,39.6,105.8,39.6z M101.7,48.9c0,0,0,0.1,0,0.1
		c0,0.1,0,0.1,0,0.1c0.8-0.2,1.6-0.6,2.3-1.3c0.7-0.7,1.3-1.4,1.6-2.2c0.4-0.8,0.7-1.6,0.9-2.4c0.2-0.8,0.2-1.4,0.1-1.9
		c-0.1-0.5-0.4-0.8-0.8-0.8c-0.7,0-1.5,1.1-2.4,3.4C102.4,46.1,101.9,47.7,101.7,48.9z"/>
	<path fill="#F5D563" d="M111.4,46.7c0.2-0.6,0.8-1,1.9-1.2c0.6-0.1,1.1-0.1,1.2,0c-0.3,0.7-0.6,1.7-1,3.2c1.5-1.7,3.5-2.5,6.1-2.5
		c1.5,0,2.4,0.4,2.9,1.2c0.5,0.8,0.4,1.8-0.3,3c-0.6,1.2-1.7,2.3-3.1,3.3c2.9,0,5.4-1,7.4-2.9c0.3-0.1,0.5,0,0.7,0
		c0.2,0.1,0.4,0.2,0.5,0.3c0.1,0.1,0,0.3-0.1,0.5c-0.9,1-2.2,1.7-3.6,2.1c-1.5,0.4-3,0.7-4.5,0.7c-1.5,0-2.5-0.2-2.9-0.5
		c-0.5-0.3-0.4-0.7,0.2-1c0.6-0.5,1.3-1.3,1.9-2.2s1-1.8,1.2-2.6c0.2-0.8-0.2-1.2-1.1-1.2c-0.4,0-0.9,0.2-1.6,0.5
		c-0.7,0.4-1.4,1-2.2,1.8c-0.8,0.8-1.5,1.7-2,2.7c-0.8,3.9-1.2,6.7-1.2,8.2c0,0.2-0.4,0.3-1,0.2c-0.7-0.1-1.1-0.2-1.1-0.5
		c-0.3-1.6-0.1-3.8,0.4-6.7C110.2,50.3,110.8,48.2,111.4,46.7z"/>
</g>
</svg>
