<?xml version="1.0" encoding="utf-8"?>
<!-- Generator: Adobe Illustrator 18.1.1, SVG Export Plug-In . SVG Version: 6.00 Build 0)  -->
<svg version="1.1" id="Calque_1" xmlns="http://www.w3.org/2000/svg" xmlns:xlink="http://www.w3.org/1999/xlink" x="0px" y="0px"
	 viewBox="0 0 40 40" enable-background="new 0 0 40 40" xml:space="preserve">
<g>
	<g>
		<path d="M35.1,40H4.8C2.1,40,0,37.9,0,35.2l0,0c0-2.6,2.1-4.8,4.8-4.8h30.4c2.6,0,4.8,2.1,4.8,4.8l0,0C39.9,37.9,37.8,40,35.1,40z
			"/>
	</g>
	<g>
		<path d="M35.1,24.8H4.8C2.1,24.8,0,22.6,0,20l0,0c0-2.6,2.1-4.8,4.8-4.8h30.4c2.6,0,4.8,2.1,4.8,4.8l0,0
			C39.9,22.6,37.8,24.8,35.1,24.8z"/>
	</g>
	<g>
		<path d="M35.1,9.5H4.8C2.1,9.5,0,7.4,0,4.8l0,0C0,2.1,2.1,0,4.8,0h30.4c2.6,0,4.7,2.1,4.7,4.8l0,0C39.9,7.4,37.8,9.5,35.1,9.5z"/>
	</g>
</g>
</svg>
