<?xml version="1.0" encoding="utf-8"?>
<!-- Generator: Adobe Illustrator 20.1.0, SVG Export Plug-In . SVG Version: 6.00 Build 0)  -->
<svg version="1.2" baseProfile="tiny" id="Calque_1"
	 xmlns="http://www.w3.org/2000/svg" xmlns:xlink="http://www.w3.org/1999/xlink" x="0px" y="0px" viewBox="0 0 32 32"
	 overflow="scroll" xml:space="preserve">
<path d="M15.8,0C7.1,0,4.2,2.2,1.3,7.1c7.1-3.5,14.4-3.1,14.5-3.1c0.2,0,7.5-0.4,14.5,3.1C27.5,2.2,24.6,0,15.8,0z"/>
<path d="M15.8,7.1c-8.7,0-11.7,1.4-14.5,4.6c7.1-2.3,14.4-2,14.5-2c0.2,0,7.5-0.2,14.5,2C27.5,8.5,24.6,7.1,15.8,7.1z"/>
<g>
	<path d="M27.6,18.1H4.3c-2.1,0-3.7-1-3.7-2.1l0,0c0-1.1,1.6-2.1,3.7-2.1h23.3c2,0,3.7,0.9,3.7,2.1l0,0
		C31.3,17.1,29.7,18.1,27.6,18.1z"/>
</g>
<path d="M16,32c8.7,0,11.7-2.2,14.5-7.1c-7.1,3.5-14.4,3.1-14.5,3.1c-0.2,0-7.5,0.4-14.5-3.1C4.3,29.8,7.3,32,16,32z"/>
<path d="M16,24.4c8.7,0,11.7-1.4,14.5-4.6c-7.1,2.3-14.4,2-14.5,2c-0.2,0-7.5,0.2-14.5-2C4.3,23,7.3,24.4,16,24.4z"/>
</svg>
