<?xml version="1.0" encoding="utf-8"?>
<!-- Generator: Adobe Illustrator 20.1.0, SVG Export Plug-In . SVG Version: 6.00 Build 0)  -->
<svg version="1.2" baseProfile="tiny" xmlns="http://www.w3.org/2000/svg" xmlns:xlink="http://www.w3.org/1999/xlink" x="0px"
	 y="0px" viewBox="0 0 100 20" overflow="scroll" xml:space="preserve">
<g id="background" display="none">
	<rect x="-14.1" y="-13.8" display="inline" fill="#D0D1D3" width="131.1" height="298.3"/>
	<rect x="-17.8" y="-16.9" display="inline" fill="#FFFFFF" width="130.2" height="295.4"/>
	<rect x="-15.9" y="-25.1" fill="#A6A8AA" width="297.7" height="314.6"/>
	<rect x="-27.4" y="-32.3" fill="#4291AD" width="301.2" height="316.8"/>
</g>
<g id="examples">
</g>
<g id="logo">
	<g>
		<g>
			<path d="M21.5,6.4V6.2h0.4v0.2v6.5h3.2V6.4V6.2h1v0.2v6.7v0.2h-0.2h-4.2h-0.2v-0.2V6.4z"/>
			<path fill="#3D3535" d="M28,13v0.2h-0.4V13V8.6V8.4h0.2h3.4h0.2v0.2V13v0.2h-0.4V13V8.8H28V13z"/>
			<path fill="#3D3535" d="M32.9,10.7L35.2,9l0.1,0H36l-0.5,0.4L33,11.1l2.5,1.8l0.5,0.4h-0.7l-0.1,0l-2.4-1.7V13v0.2h-0.4V13v-1.8
				V11V5.7V5.4h0.4v0.2V10.7z"/>
			<path fill="#3D3535" d="M37.3,13v0.2h-0.4V13V8.6V8.4h0.2h3.4h0.2v0.2V13v0.2h-0.4V13V8.8h-2.9V13z"/>
			<path fill="#3D3535" d="M41.9,8.6V8.4h0.2h3.4h0.2v0.2V13v0.2h-0.2h-3.4h-0.2V13V8.6z M42.3,8.8v4h2.9v-4H42.3z"/>
			<path fill="#3D3535" d="M46.9,8.6V8.4h0.4v0.2v4.2h1.8V8.6V8.4h0.4v0.2v4.2h2.9V8.6V8.4h0.4v0.2V13v0.2h-0.2h-3.1h-0.4h-2h-0.2
				V13V8.6z"/>
			<path fill="#3D3535" d="M54.6,13v0.2h-0.4V13V8.6V8.4h0.2h3.4h0.2v0.2V13v0.2h-0.4V13V8.8h-2.9V13z"/>
		</g>
		<g>
			<path d="M65.2,6.4h0.2v0.4h-0.2h-3.1v6.1h3.1h0.2v0.4h-0.2h-4.1h-0.2v-0.2V6.6V6.4h0.2H65.2z"/>
			<path fill="#3D3535" d="M66.8,8.7V8.5H67h3.3h0.2v0.2V13v0.2h-0.2H67h-0.2V13V8.7z M67.2,8.9v3.9h2.9V8.9H67.2z"/>
			<path fill="#3D3535" d="M72.1,13v0.2h-0.4V13V8.7V8.5h0.2h2.3h0.4h2.6h0.2v0.2V13v0.2h-0.4V13V8.9h-2.4V13v0.2h-0.4V13V8.9h-2.1
				V13z"/>
			<path fill="#3D3535" d="M79.1,14.7v0.2h-0.4v-0.2V8.7V8.5h0.2h3.3h0.2v0.2V13v0.2h-0.2h-2.7h-0.2v-0.4h0.2h2.5V8.9h-2.9V14.7z"/>
			<path fill="#3D3535" d="M83.8,8.9h-0.2V8.5h0.2H87h0.2v0.2V13v0.2H87h-3.3h-0.2V13v-1.6v-0.2h0.2h2.6h0.2v0.4h-0.2H84v1.2h2.9
				V8.9H83.8z"/>
			<path fill="#3D3535" d="M88.9,13v0.2h-0.4V13V8.7V8.5h0.2h3.3h0.2v0.2V13v0.2h-0.4V13V8.9h-2.9V13z"/>
			<path fill="#3D3535" d="M93.3,8.7V8.5h0.4v0.2v4.1h2.9V8.7V8.5H97v0.2v4.1v0.4v1v0.2h-0.2h-3.3h-0.2V14h0.2h3.1v-0.7h-3.1h-0.2
				V13V8.7z"/>
		</g>
		<g>
			<polygon points="8.7,16 3.6,13.5 3.6,6.7 3.9,6.1 3,5.6 3,13.9 9.7,17.2 9.7,8.9 8.4,8.3 8.7,9.2 			"/>
			<polygon points="11,9.2 16.2,6.7 16.7,6.8 16.7,5.6 10.2,8.9 10.2,17.2 16.7,14 16.7,12.8 16.2,13.5 11,16 			"/>
			<polygon fill="#3D3535" points="15.1,5.6 15.7,5.2 9.9,2.8 4,5.2 4.7,5.5 9.9,3 			"/>
			<path fill="#3D3535" d="M9.8,4c0.3,0,0.6-0.1,0.6-0.2s-0.3-0.2-0.6-0.2c-0.3,0-0.5,0.1-0.5,0.2S9.5,4,9.8,4z"/>
			<path fill="#3D3535" d="M9.8,5.5c0.4,0,0.8-0.2,0.8-0.4c0-0.2-0.4-0.4-0.8-0.4C9.4,4.8,9,5,9,5.2C9,5.4,9.4,5.5,9.8,5.5z"/>
			<path fill="#3D3535" d="M11,7.1c0-0.3-0.6-0.5-1.2-0.5c-0.6,0-1.1,0.2-1.1,0.5c0,0.3,0.5,0.5,1.1,0.5C10.4,7.7,11,7.4,11,7.1z"/>
			<path fill="#3D3535" d="M13.2,12.9c0,0.6-0.3,1.1-0.7,1c-0.3-0.1-0.5-0.7-0.4-1.2c0-0.6,0.3-1,0.6-1C13,11.7,13.2,12.3,13.2,12.9
				z"/>
			<path fill="#3D3535" d="M15.5,9.5c0,0.6-0.3,1.1-0.6,0.9c-0.3-0.1-0.5-0.6-0.4-1.2c0-0.6,0.3-1,0.6-1C15.4,8.3,15.6,8.8,15.5,9.5
				z"/>
			<path fill="#3D3535" d="M6.7,11.3c0,0.8-0.4,1.2-0.8,1.1c-0.4-0.2-0.7-0.8-0.7-1.4c0-0.6,0.3-1.1,0.7-1.1
				C6.3,9.9,6.7,10.6,6.7,11.3z"/>
		</g>
	</g>
</g>
<g id="logoDark_1_">
</g>
<g id="infos">
</g>
</svg>
