<?xml version="1.0" encoding="utf-8"?>
<!-- Generator: Adobe Illustrator 20.1.0, SVG Export Plug-In . SVG Version: 6.00 Build 0)  -->
<svg version="1.2" baseProfile="tiny" xmlns="http://www.w3.org/2000/svg" xmlns:xlink="http://www.w3.org/1999/xlink" x="0px"
	 y="0px" viewBox="0 0 50 25" overflow="scroll" xml:space="preserve">
<g id="background" display="none">
	<rect x="-64.1" y="-173.8" display="inline" fill="#D0D1D3" width="131.1" height="298.3"/>
	<rect x="-67.8" y="-176.9" display="inline" fill="#FFFFFF" width="130.2" height="295.4"/>
	<rect x="-65.9" y="-185.1" fill="#A6A8AA" width="297.7" height="314.6"/>
	<rect x="-77.4" y="-192.3" fill="#4291AD" width="301.2" height="316.8"/>
</g>
<g id="examples">
</g>
<g id="logo">
	<g>
		<g>
			<path d="M3,3.8V3.5h0.5v0.3v7.8h3.9V3.8V3.5h1.2v0.3v8.1v0.3H8.3H3.2H3v-0.3V3.8z"/>
			<path d="M10.9,11.7V12h-0.5v-0.3V6.4V6.2h0.3h4.1h0.3v0.3v5.3V12h-0.5v-0.3V6.7h-3.6V11.7z"/>
			<path d="M16.7,8.9l2.9-2l0.1-0.1h0.9l-0.6,0.5l-3,2.1l3,2.1l0.6,0.5h-0.9l-0.1-0.1l-2.9-2v1.8V12h-0.5v-0.3V9.5V9.3V2.8V2.6h0.5
				v0.3V8.9z"/>
			<path d="M22.1,11.7V12h-0.5v-0.3V6.4V6.2h0.3h4.1h0.3v0.3v5.3V12h-0.5v-0.3V6.7h-3.6V11.7z"/>
			<path d="M27.6,6.4V6.2h0.3h4.1h0.3v0.3v5.3V12h-0.3h-4.1h-0.3v-0.3V6.4z M28.1,6.7v4.8h3.6V6.7H28.1z"/>
			<path d="M33.7,6.4V6.2h0.5v0.3v5.1h2.2V6.4V6.2h0.5v0.3v5.1h3.5V6.4V6.2h0.5v0.3v5.3V12h-0.3h-3.8h-0.5H34h-0.3v-0.3V6.4z"/>
			<path d="M43,11.7V12h-0.5v-0.3V6.4V6.2h0.3h4.1H47v0.3v5.3V12h-0.5v-0.3V6.7H43V11.7z"/>
		</g>
		<g>
			<path d="M14.7,13.8h0.2v0.4h-0.2h-3.1v6.2h3.1h0.2v0.4h-0.2h-4.1h-0.2v-0.2V14v-0.2h0.2H14.7z"/>
			<path d="M16.3,16.2V16h0.2h3.3h0.2v0.2v4.4v0.2h-0.2h-3.3h-0.2v-0.2V16.2z M16.8,16.4v4h2.9v-4H16.8z"/>
			<path d="M21.7,20.5v0.2h-0.4v-0.2v-4.4V16h0.2h2.4h0.4H27h0.2v0.2v4.4v0.2h-0.4v-0.2v-4.2h-2.5v4.2v0.2h-0.4v-0.2v-4.2h-2.2V20.5
				z"/>
			<path d="M28.8,22.2v0.2h-0.4v-0.2v-6V16h0.2h3.3h0.2v0.2v4.4v0.2h-0.2h-2.7H29v-0.4h0.2h2.5v-4h-2.9V22.2z"/>
			<path d="M33.6,16.4h-0.2V16h0.2h3.3h0.2v0.2v4.4v0.2h-0.2h-3.3h-0.2v-0.2v-1.6v-0.2h0.2h2.7h0.2v0.4h-0.2h-2.5v1.2h2.9v-4H33.6z"
				/>
			<path d="M38.7,20.5v0.2h-0.4v-0.2v-4.4V16h0.2h3.3H42v0.2v4.4v0.2h-0.4v-0.2v-4.2h-2.9V20.5z"/>
			<path d="M43.3,16.2V16h0.4v0.2v4.2h2.9v-4.2V16H47v0.2v4.2v0.4v1v0.2h-0.2h-3.3h-0.2v-0.4h0.2h3.1v-0.8h-3.1h-0.2v-0.2V16.2z"/>
		</g>
	</g>
</g>
<g id="logoDark_1_">
</g>
<g id="infos">
</g>
</svg>
